{
  "accessors": [
    {
      "bufferView": 2,
      "componentType": 5126,
      "count": 1443,
      "max": [
        8.970071792602539,
        1.8377422094345093,
        16.833206176757813
      ],
      "min": [
        -13.272785186767578,
        -1.8377422094345093,
        -23.070262908935547
      ],
      "type": "VEC3"
    },
    {
      "bufferView": 2,
      "byteOffset": 17316,
      "componentType": 5126,
      "count": 1443,
      "max": [
        1.0,
        1.0,
        1.0
      ],
      "min": [
        -1.0,
        -1.0,
        -1.0
      ],
      "type": "VEC3"
    },
    {
      "bufferView": 1,
      "componentType": 5126,
      "count": 1443,
      "max": [
        0.8750000596046448,
        1.0
      ],
      "min": [
        0.0,
        0.0
      ],
      "type": "VEC2"
    },
    {
      "bufferView": 0,
      "componentType": 5125,
      "count": 3000,
      "type": "SCALAR"
    },
    {
      "bufferView": 2,
      "byteOffset": 34632,
      "componentType": 5126,
      "count": 274,
      "max": [
        5.068057537078857,
        1.11648428440094,
        14.866561889648438
      ],
      "min": [
        -11.272786140441895,
        -1.11648428440094,
        -18.69976806640625
      ],
      "type": "VEC3"
    },
    {
      "bufferView": 2,
      "byteOffset": 37920,
      "componentType": 5126,
      "count": 274,
      "max": [
        8.940696716308594e-08,
        1.0,
        8.148803232188584e-08
      ],
      "min": [
        -8.940699558479537e-08,
        -1.0,
        -8.148815311415092e-08
      ],
      "type": "VEC3"
    },
    {
      "bufferView": 1,
      "byteOffset": 11544,
      "componentType": 5126,
      "count": 274,
      "max": [
        0.6250000596046448,
        1.0
      ],
      "min": [
        0.0,
        0.0
      ],
      "type": "VEC2"
    },
    {
      "bufferView": 0,
      "byteOffset": 12000,
      "componentType": 5125,
      "count": 696,
      "type": "SCALAR"
    }
  ],
  "asset": {
    "extras": {
      "author": "Ayal Othman (https://sketchfab.com/aofordesign)",
      "license": "CC-BY-4.0 (http://creativecommons.org/licenses/by/4.0/)",
      "source": "https://sketchfab.com/3d-models/3d-mouse-cursor-d1439485ea9c4b27945950d77b91cc72",
      "title": "3D Mouse Cursor"
    },
    "generator": "Sketchfab-12.67.0",
    "version": "2.0"
  },
  "bufferViews": [
    {
      "buffer": 0,
      "byteLength": 14784,
      "name": "floatBufferViews",
      "target": 34963
    },
    {
      "buffer": 0,
      "byteLength": 13736,
      "byteOffset": 14784,
      "byteStride": 8,
      "name": "floatBufferViews",
      "target": 34962
    },
    {
      "buffer": 0,
      "byteLength": 41208,
      "byteOffset": 28520,
      "byteStride": 12,
      "name": "floatBufferViews",
      "target": 34962
    }
  ],
  "buffers": [
    {
      "byteLength": 69728,
      "uri": "scene.bin"
    }
  ],
  "materials": [
    {
      "doubleSided": true,
      "name": "Black",
      "pbrMetallicRoughness": {
        "baseColorFactor": [
          0.0,
          0.0,
          0.0,
          1.0
        ],
        "metallicFactor": 0.8,
        "roughnessFactor": 0.5
      }
    },
    {
      "doubleSided": true,
      "name": "White",
      "pbrMetallicRoughness": {
        "metallicFactor": 0.0
      }
    }
  ],
  "meshes": [
    {
      "name": "Object_0",
      "primitives": [
        {
          "attributes": {
            "NORMAL": 1,
            "POSITION": 0,
            "TEXCOORD_0": 2
          },
          "indices": 3,
          "material": 0,
          "mode": 4
        }
      ]
    },
    {
      "name": "Object_1",
      "primitives": [
        {
          "attributes": {
            "NORMAL": 5,
            "POSITION": 4,
            "TEXCOORD_0": 6
          },
          "indices": 7,
          "material": 1,
          "mode": 4
        }
      ]
    }
  ],
  "nodes": [
    {
      "children": [
        1
      ],
      "matrix": [
        -0.5931740155415497,
        -1.4887304345331387,
        0.3516339520401598,
        0.0,
        -1.2806253423431997,
        0.6895664200806875,
        0.7591555657790182,
        0.0,
        -0.836638233531616,
        -3.2415243020138427e-16,
        -1.411331525589219,
        0.0,
        -0.10587872564792633,
        -0.13697321712970745,
        0.5488339066505432,
        1.0
      ],
      "name": "Sketchfab_model"
    },
    {
      "children": [
        2
      ],
      "name": "root"
    },
    {
      "children": [
        3
      ],
      "matrix": [
        1.0,
        0.0,
        0.0,
        0.0,
        0.0,
        2.220446049250313e-16,
        1.0,
        0.0,
        0.0,
        -1.0,
        2.220446049250313e-16,
        0.0,
        0.0,
        0.0,
        0.0,
        1.0
      ],
      "name": "GLTF_SceneRootNode"
    },
    {
      "children": [
        4,
        5
      ],
      "matrix": [
        0.08806607127189636,
        0.0,
        0.0,
        0.0,
        0.0,
        0.08806607127189636,
        0.0,
        0.0,
        0.0,
        0.0,
        0.08806607127189636,
        0.0,
        0.1526910662651062,
        0.0,
        0.1762571483850479,
        1.0
      ],
      "name": "Mouse_0"
    },
    {
      "mesh": 0,
      "name": "Object_4"
    },
    {
      "mesh": 1,
      "name": "Object_5"
    }
  ],
  "scene": 0,
  "scenes": [
    {
      "name": "Sketchfab_Scene",
      "nodes": [
        0
      ]
    }
  ]
}
