{
  "accessors": [
    {
      "bufferView": 2,
      "componentType": 5126,
      "count": 539,
      "max": [
        0.014846626669168472,
        0.003846946870908141,
        0.0009183835354633629
      ],
      "min": [
        -0.014846626669168472,
        -0.0005594544345512986,
        -0.02180464006960392
      ],
      "type": "VEC3"
    },
    {
      "bufferView": 2,
      "byteOffset": 6468,
      "componentType": 5126,
      "count": 539,
      "max": [
        0.9984769225120544,
        0.9994855523109436,
        0.9997445940971375
      ],
      "min": [
        -0.9984769225120544,
        -0.7171114683151245,
        -0.9319794774055481
      ],
      "type": "VEC3"
    },
    {
      "bufferView": 1,
      "componentType": 5126,
      "count": 539,
      "max": [
        1.0,
        1.0
      ],
      "min": [
        0.0,
        0.0
      ],
      "type": "VEC2"
    },
    {
      "bufferView": 0,
      "componentType": 5125,
      "count": 1077,
      "type": "SCALAR"
    },
    {
      "bufferView": 2,
      "byteOffset": 12936,
      "componentType": 5126,
      "count": 23607,
      "max": [
        0.015344195999205112,
        0.003846957115456462,
        0.016409028321504593
      ],
      "min": [
        -0.015344195999205112,
        -0.001348906080238521,
        -0.026956988498568535
      ],
      "type": "VEC3"
    },
    {
      "bufferView": 2,
      "byteOffset": 296220,
      "componentType": 5126,
      "count": 23607,
      "max": [
        1.0,
        1.0,
        1.0
      ],
      "min": [
        -1.0,
        -1.0,
        -1.0
      ],
      "type": "VEC3"
    },
    {
      "bufferView": 1,
      "byteOffset": 4312,
      "componentType": 5126,
      "count": 23607,
      "max": [
        0.9990895986557007,
        1.0
      ],
      "min": [
        0.0008931381162256002,
        0.0
      ],
      "type": "VEC2"
    },
    {
      "bufferView": 0,
      "byteOffset": 4308,
      "componentType": 5125,
      "count": 89496,
      "type": "SCALAR"
    },
    {
      "bufferView": 2,
      "byteOffset": 579504,
      "componentType": 5126,
      "count": 532,
      "max": [
        0.008535289205610752,
        0.0037174345925450325,
        0.0009837832767516375
      ],
      "min": [
        -0.008535289205610752,
        -0.000624250911641866,
        -0.01352726947516203
      ],
      "type": "VEC3"
    },
    {
      "bufferView": 2,
      "byteOffset": 585888,
      "componentType": 5126,
      "count": 532,
      "max": [
        1.0,
        1.0,
        0.982561469078064
      ],
      "min": [
        -1.0,
        -1.0,
        -1.0
      ],
      "type": "VEC3"
    },
    {
      "bufferView": 1,
      "byteOffset": 193168,
      "componentType": 5126,
      "count": 532,
      "max": [
        0.9991236329078674,
        1.0
      ],
      "min": [
        0.0008763809455558658,
        0.0
      ],
      "type": "VEC2"
    },
    {
      "bufferView": 0,
      "byteOffset": 362292,
      "componentType": 5125,
      "count": 1341,
      "type": "SCALAR"
    }
  ],
  "asset": {
    "extras": {
      "author": "pavanahirrao (https://sketchfab.com/pavanahirrao)",
      "license": "CC-BY-4.0 (http://creativecommons.org/licenses/by/4.0/)",
      "source": "https://sketchfab.com/3d-models/spaceship-f54ab5f5cd3c43e8bbdbea05d19b67ab",
      "title": "Spaceship"
    },
    "generator": "Sketchfab-12.64.0",
    "version": "2.0"
  },
  "bufferViews": [
    {
      "buffer": 0,
      "byteLength": 367656,
      "name": "floatBufferViews",
      "target": 34963
    },
    {
      "buffer": 0,
      "byteLength": 197424,
      "byteOffset": 367656,
      "byteStride": 8,
      "name": "floatBufferViews",
      "target": 34962
    },
    {
      "buffer": 0,
      "byteLength": 592272,
      "byteOffset": 565080,
      "byteStride": 12,
      "name": "floatBufferViews",
      "target": 34962
    }
  ],
  "buffers": [
    {
      "byteLength": 1157352,
      "uri": "scene.bin"
    }
  ],
  "extensionsUsed": [
    "KHR_materials_clearcoat"
  ],
  "materials": [
    {
      "doubleSided": true,
      "emissiveFactor": [
        0.37864427832619535,
        0.6422838900296656,
        1.0
      ],
      "name": "Mtl2",
      "pbrMetallicRoughness": {
        "baseColorFactor": [
          0.0,
          0.008174149546549245,
          0.9309814245047139,
          1.0
        ],
        "metallicFactor": 0.0
      }
    },
    {
      "doubleSided": true,
      "name": "Mtl1",
      "pbrMetallicRoughness": {
        "baseColorFactor": [
          0.4404641729196031,
          0.4404641729196031,
          0.4404641729196031,
          1.0
        ],
        "roughnessFactor": 0.37203211547464865
      }
    },
    {
      "doubleSided": true,
      "emissiveFactor": [
        1.0,
        0.06751681844958778,
        0.0
      ],
      "extensions": {
        "KHR_materials_clearcoat": {
          "clearcoatFactor": 1.0,
          "clearcoatRoughnessFactor": 0.04
        }
      },
      "name": "Mtl3",
      "pbrMetallicRoughness": {
        "baseColorFactor": [
          1.0,
          0.909804,
          0.219608,
          1.0
        ],
        "metallicFactor": 0.0
      }
    }
  ],
  "meshes": [
    {
      "name": "3DGeom-1575_Mtl2_0",
      "primitives": [
        {
          "attributes": {
            "NORMAL": 1,
            "POSITION": 0,
            "TEXCOORD_0": 2
          },
          "indices": 3,
          "material": 0,
          "mode": 4
        }
      ]
    },
    {
      "name": "3DGeom-1576_Mtl1_0",
      "primitives": [
        {
          "attributes": {
            "NORMAL": 5,
            "POSITION": 4,
            "TEXCOORD_0": 6
          },
          "indices": 7,
          "material": 1,
          "mode": 4
        }
      ]
    },
    {
      "name": "3DGeom-1577_Mtl3_0",
      "primitives": [
        {
          "attributes": {
            "NORMAL": 9,
            "POSITION": 8,
            "TEXCOORD_0": 10
          },
          "indices": 11,
          "material": 2,
          "mode": 4
        }
      ]
    }
  ],
  "nodes": [
    {
      "children": [
        1
      ],
      "matrix": [
        1.0,
        3.8285688045569397e-16,
        1.60812262295773e-16,
        0.0,
        -1.6081226229577292e-16,
        -5.053215392444312e-16,
        1.0,
        0.0,
        3.82856880455694e-16,
        -1.0,
        -5.053215392444312e-16,
        0.0,
        -2.00229324308056e-17,
        -0.00519581325352192,
        0.002498262561857699,
        1.0
      ],
      "name": "Sketchfab_model"
    },
    {
      "children": [
        2
      ],
      "matrix": [
        1.0,
        0.0,
        0.0,
        0.0,
        0.0,
        -1.0,
        0.0,
        0.0,
        0.0,
        0.0,
        -1.0,
        0.0,
        0.0,
        0.0,
        0.0,
        1.0
      ],
      "name": "8f66f19cf4f2486bb8448d116411fbd7.fbx"
    },
    {
      "children": [
        3,
        5
      ],
      "name": "RootNode"
    },
    {
      "children": [
        4
      ],
      "matrix": [
        -0.46236831248158916,
        0.8559752390390196,
        -0.23134807923348133,
        0.0,
        -0.10995087350867833,
        0.2035503357395898,
        0.9728710429625188,
        0.0,
        0.8798445027546665,
        0.4752616657930594,
        -6.835199073407239e-12,
        0.0,
        0.09405376762151718,
        -0.17191989719867706,
        0.05180718004703522,
        1.0
      ],
      "name": "Default Camera 1"
    },
    {
      "name": "Object_4"
    },
    {
      "children": [
        6
      ],
      "matrix": [
        5.202137470245361,
        6.571782731009683e-15,
        1.0438285172234123e-15,
        0.0,
        -1.0438285172234113e-15,
        -1.155106559346333e-15,
        5.202137470245361,
        0.0,
        6.571782731009683e-15,
        -5.202137470245361,
        -1.155106559346333e-15,
        0.0,
        8.041327798837892e-17,
        -0.02618694305419922,
        -0.0038996716029942036,
        1.0
      ],
      "name": "Assembly-2"
    },
    {
      "children": [
        7
      ],
      "matrix": [
        1.0,
        -2.4651903288156624e-32,
        -2.740369022211029e-31,
        0.0,
        2.4651903288156624e-32,
        1.0,
        0.0,
        0.0,
        2.740369022211029e-31,
        -6.755531210940662e-63,
        1.0,
        0.0,
        0.0,
        0.0,
        0.0,
        1.0
      ],
      "name": "love it"
    },
    {
      "children": [
        8,
        10,
        12
      ],
      "matrix": [
        1.0,
        -2.4651903288156624e-32,
        -4.71252128526356e-31,
        0.0,
        2.4651903288156624e-32,
        1.0,
        0.0,
        0.0,
        4.71252128526356e-31,
        -1.1617261896769682e-62,
        1.0,
        0.0,
        0.0,
        0.0,
        0.0,
        1.0
      ],
      "name": "Body_1"
    },
    {
      "children": [
        9
      ],
      "matrix": [
        1.0,
        3.531506425620357e-14,
        -1.5673078324846894e-30,
        0.0,
        -3.531506425620357e-14,
        1.0,
        -5.49047190033835e-28,
        0.0,
        1.5673078324652996e-30,
        5.49047190033835e-28,
        1.0,
        0.0,
        -2.0912451491902993e-15,
        1.9949319973733282e-17,
        5.204170427930421e-18,
        1.0
      ],
      "name": "3DGeom-1575"
    },
    {
      "mesh": 0,
      "name": "3DGeom-1575_Mtl2_0"
    },
    {
      "children": [
        11
      ],
      "matrix": [
        1.0,
        -2.4651903288156624e-32,
        -2.740369022211029e-31,
        0.0,
        2.4651903288156624e-32,
        1.0,
        0.0,
        0.0,
        2.740369022211029e-31,
        -6.755531210940662e-63,
        1.0,
        0.0,
        0.0,
        0.0,
        0.0,
        1.0
      ],
      "name": "3DGeom-1576"
    },
    {
      "mesh": 1,
      "name": "3DGeom-1576_Mtl1_0"
    },
    {
      "children": [
        13
      ],
      "matrix": [
        1.0,
        -2.4651903288156624e-32,
        -2.740369022211029e-31,
        0.0,
        2.4651903288156624e-32,
        1.0,
        0.0,
        0.0,
        2.740369022211029e-31,
        -6.755531210940662e-63,
        1.0,
        0.0,
        0.0,
        0.0,
        0.0,
        1.0
      ],
      "name": "3DGeom-1577"
    },
    {
      "mesh": 2,
      "name": "3DGeom-1577_Mtl3_0"
    }
  ],
  "scene": 0,
  "scenes": [
    {
      "name": "Sketchfab_Scene",
      "nodes": [
        0
      ]
    }
  ]
}
